<mxfile host="app.diagrams.net" modified="2024-07-11T14:53:36.091Z" agent="Mozilla/5.0 (Windows NT 10.0; Win64; x64) AppleWebKit/537.36 (KHTML, like Gecko) Chrome/126.0.0.0 Safari/537.36" etag="RLEnZoZZrtuKZqbPSJ-u" version="24.6.4" type="device">
  <diagram id="C5RBs43oDa-KdzZeNtuy" name="Page-1">
    <mxGraphModel dx="1050" dy="522" grid="1" gridSize="10" guides="1" tooltips="1" connect="1" arrows="1" fold="1" page="1" pageScale="1" pageWidth="827" pageHeight="1169" math="0" shadow="0">
      <root>
        <mxCell id="WIyWlLk6GJQsqaUBKTNV-0" />
        <mxCell id="WIyWlLk6GJQsqaUBKTNV-1" parent="WIyWlLk6GJQsqaUBKTNV-0" />
        <mxCell id="WIyWlLk6GJQsqaUBKTNV-3" value="login" style="rounded=1;whiteSpace=wrap;html=1;fontSize=12;glass=0;strokeWidth=1;shadow=0;" parent="WIyWlLk6GJQsqaUBKTNV-1" vertex="1">
          <mxGeometry x="80" y="40" width="130" height="40" as="geometry" />
        </mxCell>
        <mxCell id="WIyWlLk6GJQsqaUBKTNV-5" value="No" style="edgeStyle=orthogonalEdgeStyle;rounded=0;html=1;jettySize=auto;orthogonalLoop=1;fontSize=11;endArrow=block;endFill=0;endSize=8;strokeWidth=1;shadow=0;labelBackgroundColor=none;" parent="WIyWlLk6GJQsqaUBKTNV-1" target="WIyWlLk6GJQsqaUBKTNV-7" edge="1">
          <mxGeometry x="0.0187" y="10" relative="1" as="geometry">
            <mxPoint as="offset" />
            <mxPoint x="200" y="150" as="sourcePoint" />
          </mxGeometry>
        </mxCell>
        <mxCell id="WIyWlLk6GJQsqaUBKTNV-7" value="throw err" style="rounded=1;whiteSpace=wrap;html=1;fontSize=12;glass=0;strokeWidth=1;shadow=0;" parent="WIyWlLk6GJQsqaUBKTNV-1" vertex="1">
          <mxGeometry x="260" y="130" width="120" height="40" as="geometry" />
        </mxCell>
        <mxCell id="WIyWlLk6GJQsqaUBKTNV-9" value="Yes" style="edgeStyle=orthogonalEdgeStyle;rounded=0;html=1;jettySize=auto;orthogonalLoop=1;fontSize=11;endArrow=block;endFill=0;endSize=8;strokeWidth=1;shadow=0;labelBackgroundColor=none;" parent="WIyWlLk6GJQsqaUBKTNV-1" target="WIyWlLk6GJQsqaUBKTNV-12" edge="1">
          <mxGeometry x="-1" y="-64" relative="1" as="geometry">
            <mxPoint x="-39" y="-14" as="offset" />
            <mxPoint x="200" y="240" as="sourcePoint" />
          </mxGeometry>
        </mxCell>
        <mxCell id="ODxwCIMf4g0yygUYPErz-16" value="" style="edgeStyle=orthogonalEdgeStyle;rounded=0;orthogonalLoop=1;jettySize=auto;html=1;" edge="1" parent="WIyWlLk6GJQsqaUBKTNV-1" source="WIyWlLk6GJQsqaUBKTNV-11" target="ODxwCIMf4g0yygUYPErz-14">
          <mxGeometry relative="1" as="geometry" />
        </mxCell>
        <mxCell id="WIyWlLk6GJQsqaUBKTNV-11" value="generate access and refresh token for the user" style="rounded=1;whiteSpace=wrap;html=1;fontSize=12;glass=0;strokeWidth=1;shadow=0;" parent="WIyWlLk6GJQsqaUBKTNV-1" vertex="1">
          <mxGeometry x="80" y="310" width="130" height="50" as="geometry" />
        </mxCell>
        <mxCell id="WIyWlLk6GJQsqaUBKTNV-12" value="throw err" style="rounded=1;whiteSpace=wrap;html=1;fontSize=12;glass=0;strokeWidth=1;shadow=0;" parent="WIyWlLk6GJQsqaUBKTNV-1" vertex="1">
          <mxGeometry x="260" y="220" width="120" height="40" as="geometry" />
        </mxCell>
        <mxCell id="ODxwCIMf4g0yygUYPErz-5" style="edgeStyle=orthogonalEdgeStyle;rounded=0;orthogonalLoop=1;jettySize=auto;html=1;entryX=0.5;entryY=0;entryDx=0;entryDy=0;" edge="1" parent="WIyWlLk6GJQsqaUBKTNV-1" source="ODxwCIMf4g0yygUYPErz-0" target="ODxwCIMf4g0yygUYPErz-4">
          <mxGeometry relative="1" as="geometry" />
        </mxCell>
        <mxCell id="ODxwCIMf4g0yygUYPErz-9" style="edgeStyle=orthogonalEdgeStyle;rounded=0;orthogonalLoop=1;jettySize=auto;html=1;exitX=0.5;exitY=1;exitDx=0;exitDy=0;" edge="1" parent="WIyWlLk6GJQsqaUBKTNV-1" source="WIyWlLk6GJQsqaUBKTNV-3" target="ODxwCIMf4g0yygUYPErz-0">
          <mxGeometry relative="1" as="geometry" />
        </mxCell>
        <mxCell id="ODxwCIMf4g0yygUYPErz-0" value="is there an acc with the given email/username" style="rounded=1;whiteSpace=wrap;html=1;fontSize=12;glass=0;strokeWidth=1;shadow=0;" vertex="1" parent="WIyWlLk6GJQsqaUBKTNV-1">
          <mxGeometry x="80" y="120" width="130" height="50" as="geometry" />
        </mxCell>
        <mxCell id="ODxwCIMf4g0yygUYPErz-7" style="edgeStyle=orthogonalEdgeStyle;rounded=0;orthogonalLoop=1;jettySize=auto;html=1;entryX=0.5;entryY=0;entryDx=0;entryDy=0;" edge="1" parent="WIyWlLk6GJQsqaUBKTNV-1" source="ODxwCIMf4g0yygUYPErz-4" target="WIyWlLk6GJQsqaUBKTNV-11">
          <mxGeometry relative="1" as="geometry" />
        </mxCell>
        <mxCell id="ODxwCIMf4g0yygUYPErz-4" value="is the given password correct" style="rounded=1;whiteSpace=wrap;html=1;fontSize=12;glass=0;strokeWidth=1;shadow=0;" vertex="1" parent="WIyWlLk6GJQsqaUBKTNV-1">
          <mxGeometry x="80" y="210" width="130" height="50" as="geometry" />
        </mxCell>
        <mxCell id="ODxwCIMf4g0yygUYPErz-12" value="pass the tokens and the user data in cookies" style="rounded=1;whiteSpace=wrap;html=1;fontSize=12;glass=0;strokeWidth=1;shadow=0;" vertex="1" parent="WIyWlLk6GJQsqaUBKTNV-1">
          <mxGeometry x="440" y="310" width="140" height="50" as="geometry" />
        </mxCell>
        <mxCell id="ODxwCIMf4g0yygUYPErz-17" value="" style="edgeStyle=orthogonalEdgeStyle;rounded=0;orthogonalLoop=1;jettySize=auto;html=1;" edge="1" parent="WIyWlLk6GJQsqaUBKTNV-1" source="ODxwCIMf4g0yygUYPErz-14" target="ODxwCIMf4g0yygUYPErz-12">
          <mxGeometry relative="1" as="geometry" />
        </mxCell>
        <mxCell id="ODxwCIMf4g0yygUYPErz-14" value="save the refresh token in the db" style="rounded=1;whiteSpace=wrap;html=1;fontSize=12;glass=0;strokeWidth=1;shadow=0;" vertex="1" parent="WIyWlLk6GJQsqaUBKTNV-1">
          <mxGeometry x="259" y="310" width="130" height="50" as="geometry" />
        </mxCell>
        <mxCell id="ODxwCIMf4g0yygUYPErz-32" value="register" style="rounded=1;whiteSpace=wrap;html=1;fontSize=12;glass=0;strokeWidth=1;shadow=0;" vertex="1" parent="WIyWlLk6GJQsqaUBKTNV-1">
          <mxGeometry x="80" y="420" width="130" height="40" as="geometry" />
        </mxCell>
        <mxCell id="ODxwCIMf4g0yygUYPErz-34" value="throw err" style="rounded=1;whiteSpace=wrap;html=1;fontSize=12;glass=0;strokeWidth=1;shadow=0;" vertex="1" parent="WIyWlLk6GJQsqaUBKTNV-1">
          <mxGeometry x="264" y="495" width="120" height="40" as="geometry" />
        </mxCell>
        <mxCell id="ODxwCIMf4g0yygUYPErz-36" value="" style="edgeStyle=orthogonalEdgeStyle;rounded=0;orthogonalLoop=1;jettySize=auto;html=1;" edge="1" parent="WIyWlLk6GJQsqaUBKTNV-1" source="ODxwCIMf4g0yygUYPErz-37" target="ODxwCIMf4g0yygUYPErz-46">
          <mxGeometry relative="1" as="geometry" />
        </mxCell>
        <mxCell id="ODxwCIMf4g0yygUYPErz-65" value="" style="edgeStyle=orthogonalEdgeStyle;rounded=0;orthogonalLoop=1;jettySize=auto;html=1;" edge="1" parent="WIyWlLk6GJQsqaUBKTNV-1" source="ODxwCIMf4g0yygUYPErz-37" target="ODxwCIMf4g0yygUYPErz-64">
          <mxGeometry relative="1" as="geometry" />
        </mxCell>
        <mxCell id="ODxwCIMf4g0yygUYPErz-37" value="upload on cloudinary" style="rounded=1;whiteSpace=wrap;html=1;fontSize=12;glass=0;strokeWidth=1;shadow=0;" vertex="1" parent="WIyWlLk6GJQsqaUBKTNV-1">
          <mxGeometry x="80" y="680" width="130" height="50" as="geometry" />
        </mxCell>
        <mxCell id="ODxwCIMf4g0yygUYPErz-38" value="throw err" style="rounded=1;whiteSpace=wrap;html=1;fontSize=12;glass=0;strokeWidth=1;shadow=0;" vertex="1" parent="WIyWlLk6GJQsqaUBKTNV-1">
          <mxGeometry x="264" y="585" width="120" height="40" as="geometry" />
        </mxCell>
        <mxCell id="ODxwCIMf4g0yygUYPErz-39" style="edgeStyle=orthogonalEdgeStyle;rounded=0;orthogonalLoop=1;jettySize=auto;html=1;entryX=0.5;entryY=0;entryDx=0;entryDy=0;" edge="1" parent="WIyWlLk6GJQsqaUBKTNV-1" source="ODxwCIMf4g0yygUYPErz-41" target="ODxwCIMf4g0yygUYPErz-43">
          <mxGeometry relative="1" as="geometry" />
        </mxCell>
        <mxCell id="ODxwCIMf4g0yygUYPErz-40" style="edgeStyle=orthogonalEdgeStyle;rounded=0;orthogonalLoop=1;jettySize=auto;html=1;exitX=0.5;exitY=1;exitDx=0;exitDy=0;" edge="1" parent="WIyWlLk6GJQsqaUBKTNV-1" source="ODxwCIMf4g0yygUYPErz-32" target="ODxwCIMf4g0yygUYPErz-41">
          <mxGeometry relative="1" as="geometry" />
        </mxCell>
        <mxCell id="ODxwCIMf4g0yygUYPErz-47" value="" style="edgeStyle=orthogonalEdgeStyle;rounded=0;orthogonalLoop=1;jettySize=auto;html=1;" edge="1" parent="WIyWlLk6GJQsqaUBKTNV-1" source="ODxwCIMf4g0yygUYPErz-41" target="ODxwCIMf4g0yygUYPErz-34">
          <mxGeometry relative="1" as="geometry" />
        </mxCell>
        <mxCell id="ODxwCIMf4g0yygUYPErz-41" value="is there an acc with the given email/username" style="rounded=1;whiteSpace=wrap;html=1;fontSize=12;glass=0;strokeWidth=1;shadow=0;" vertex="1" parent="WIyWlLk6GJQsqaUBKTNV-1">
          <mxGeometry x="80" y="490" width="130" height="50" as="geometry" />
        </mxCell>
        <mxCell id="ODxwCIMf4g0yygUYPErz-42" style="edgeStyle=orthogonalEdgeStyle;rounded=0;orthogonalLoop=1;jettySize=auto;html=1;entryX=0.5;entryY=0;entryDx=0;entryDy=0;" edge="1" parent="WIyWlLk6GJQsqaUBKTNV-1" source="ODxwCIMf4g0yygUYPErz-43" target="ODxwCIMf4g0yygUYPErz-37">
          <mxGeometry relative="1" as="geometry" />
        </mxCell>
        <mxCell id="ODxwCIMf4g0yygUYPErz-48" value="" style="edgeStyle=orthogonalEdgeStyle;rounded=0;orthogonalLoop=1;jettySize=auto;html=1;" edge="1" parent="WIyWlLk6GJQsqaUBKTNV-1" source="ODxwCIMf4g0yygUYPErz-43" target="ODxwCIMf4g0yygUYPErz-38">
          <mxGeometry relative="1" as="geometry" />
        </mxCell>
        <mxCell id="ODxwCIMf4g0yygUYPErz-43" value="retrieve the avatar and coverImage local path" style="rounded=1;whiteSpace=wrap;html=1;fontSize=12;glass=0;strokeWidth=1;shadow=0;" vertex="1" parent="WIyWlLk6GJQsqaUBKTNV-1">
          <mxGeometry x="80" y="580" width="130" height="50" as="geometry" />
        </mxCell>
        <mxCell id="ODxwCIMf4g0yygUYPErz-44" value="send response without password and refresh token" style="rounded=1;whiteSpace=wrap;html=1;fontSize=12;glass=0;strokeWidth=1;shadow=0;" vertex="1" parent="WIyWlLk6GJQsqaUBKTNV-1">
          <mxGeometry x="260" y="770" width="130" height="50" as="geometry" />
        </mxCell>
        <mxCell id="ODxwCIMf4g0yygUYPErz-45" value="" style="edgeStyle=orthogonalEdgeStyle;rounded=0;orthogonalLoop=1;jettySize=auto;html=1;" edge="1" parent="WIyWlLk6GJQsqaUBKTNV-1" source="ODxwCIMf4g0yygUYPErz-46" target="ODxwCIMf4g0yygUYPErz-44">
          <mxGeometry relative="1" as="geometry" />
        </mxCell>
        <mxCell id="ODxwCIMf4g0yygUYPErz-46" value="create the user in db" style="rounded=1;whiteSpace=wrap;html=1;fontSize=12;glass=0;strokeWidth=1;shadow=0;" vertex="1" parent="WIyWlLk6GJQsqaUBKTNV-1">
          <mxGeometry x="80" y="770" width="130" height="50" as="geometry" />
        </mxCell>
        <mxCell id="ODxwCIMf4g0yygUYPErz-64" value="throw err" style="rounded=1;whiteSpace=wrap;html=1;fontSize=12;glass=0;strokeWidth=1;shadow=0;" vertex="1" parent="WIyWlLk6GJQsqaUBKTNV-1">
          <mxGeometry x="264" y="685" width="120" height="40" as="geometry" />
        </mxCell>
        <mxCell id="ODxwCIMf4g0yygUYPErz-67" value="No" style="text;html=1;align=center;verticalAlign=middle;whiteSpace=wrap;rounded=0;" vertex="1" parent="WIyWlLk6GJQsqaUBKTNV-1">
          <mxGeometry x="209" y="220" width="50" height="20" as="geometry" />
        </mxCell>
        <mxCell id="ODxwCIMf4g0yygUYPErz-69" value="Yes" style="text;html=1;align=center;verticalAlign=middle;whiteSpace=wrap;rounded=0;" vertex="1" parent="WIyWlLk6GJQsqaUBKTNV-1">
          <mxGeometry x="209" y="490" width="50" height="20" as="geometry" />
        </mxCell>
        <mxCell id="ODxwCIMf4g0yygUYPErz-70" value="No" style="text;html=1;align=center;verticalAlign=middle;whiteSpace=wrap;rounded=0;" vertex="1" parent="WIyWlLk6GJQsqaUBKTNV-1">
          <mxGeometry x="140" y="550" width="50" height="20" as="geometry" />
        </mxCell>
        <mxCell id="ODxwCIMf4g0yygUYPErz-71" value="Yes" style="text;html=1;align=center;verticalAlign=middle;whiteSpace=wrap;rounded=0;" vertex="1" parent="WIyWlLk6GJQsqaUBKTNV-1">
          <mxGeometry x="140" y="180" width="50" height="20" as="geometry" />
        </mxCell>
        <mxCell id="ODxwCIMf4g0yygUYPErz-73" value="fail" style="text;html=1;align=center;verticalAlign=middle;whiteSpace=wrap;rounded=0;" vertex="1" parent="WIyWlLk6GJQsqaUBKTNV-1">
          <mxGeometry x="209" y="580" width="50" height="20" as="geometry" />
        </mxCell>
        <mxCell id="ODxwCIMf4g0yygUYPErz-74" value="fail" style="text;html=1;align=center;verticalAlign=middle;whiteSpace=wrap;rounded=0;" vertex="1" parent="WIyWlLk6GJQsqaUBKTNV-1">
          <mxGeometry x="209" y="680" width="50" height="20" as="geometry" />
        </mxCell>
        <mxCell id="ODxwCIMf4g0yygUYPErz-75" value="success" style="text;html=1;align=center;verticalAlign=middle;whiteSpace=wrap;rounded=0;" vertex="1" parent="WIyWlLk6GJQsqaUBKTNV-1">
          <mxGeometry x="150" y="740" width="50" height="20" as="geometry" />
        </mxCell>
        <mxCell id="ODxwCIMf4g0yygUYPErz-77" value="success" style="text;html=1;align=center;verticalAlign=middle;whiteSpace=wrap;rounded=0;" vertex="1" parent="WIyWlLk6GJQsqaUBKTNV-1">
          <mxGeometry x="150" y="640" width="50" height="20" as="geometry" />
        </mxCell>
        <mxCell id="ODxwCIMf4g0yygUYPErz-78" value="success" style="text;html=1;align=center;verticalAlign=middle;whiteSpace=wrap;rounded=0;" vertex="1" parent="WIyWlLk6GJQsqaUBKTNV-1">
          <mxGeometry x="210" y="310" width="50" height="20" as="geometry" />
        </mxCell>
        <mxCell id="ODxwCIMf4g0yygUYPErz-79" value="success" style="text;html=1;align=center;verticalAlign=middle;whiteSpace=wrap;rounded=0;" vertex="1" parent="WIyWlLk6GJQsqaUBKTNV-1">
          <mxGeometry x="390" y="310" width="50" height="20" as="geometry" />
        </mxCell>
      </root>
    </mxGraphModel>
  </diagram>
</mxfile>
